<?xml version="1.0" encoding="utf-8"?>
<!-- Generator: Adobe Illustrator 18.1.0, SVG Export Plug-In . SVG Version: 6.00 Build 0)  -->
<svg version="1.1" id="Layer_1" xmlns="http://www.w3.org/2000/svg" xmlns:xlink="http://www.w3.org/1999/xlink" x="0px" y="0px"
	 viewBox="-3 5 92 92" enable-background="new -3 5 92 92" xml:space="preserve">
<g>
	<g>
		<path fill="#091117" d="M59.2,91.7H26.8c-13.5,0-24.4-10.9-24.4-24.4V34.8c0-13.5,10.9-24.4,24.4-24.4h32.5
			c13.5,0,24.4,10.9,24.4,24.4v32.5C83.7,80.7,72.7,91.7,59.2,91.7z M26.8,20.1c-8.1,0-14.7,6.6-14.7,14.7v32.5
			c0,8.1,6.6,14.7,14.7,14.7h32.5c8.1,0,14.7-6.6,14.7-14.7V34.8c0-8.1-6.6-14.7-14.7-14.7H26.8z"/>
	</g>
</g>
</svg>
