<?xml version="1.0" encoding="utf-8"?>
<!-- Generator: Adobe Illustrator 18.1.0, SVG Export Plug-In . SVG Version: 6.00 Build 0)  -->
<svg version="1.1" id="Layer_1" xmlns="http://www.w3.org/2000/svg" xmlns:xlink="http://www.w3.org/1999/xlink" x="0px" y="0px"
	 viewBox="-3 5 92 92" enable-background="new -3 5 92 92" xml:space="preserve">
<path fill="#091117" d="M63.1,91.2h-39c-11.4,0-20.7-9.3-20.7-20.7v-39c0-11.4,9.3-20.7,20.7-20.7h39c11.4,0,20.7,9.3,20.7,20.7v39
	C83.9,81.9,74.5,91.2,63.1,91.2z M24.2,12.4C13.6,12.4,5.1,21,5.1,31.5v39c0,10.5,8.6,19.1,19.1,19.1h39c10.5,0,19.1-8.6,19.1-19.1
	v-39c0-10.5-8.6-19.1-19.1-19.1C63.1,12.4,24.2,12.4,24.2,12.4z"/>
</svg>
