<svg width="640" height="480" xmlns="http://www.w3.org/2000/svg">
 <metadata id="metadata4744">image/svg+xml</metadata>
 <g transform="translate(1250, 470) scale(-0.2, 0.2)">
  <title>Layer 1</title>
  <g id="layer1">
   <g id="g4780">
    <path fill="#b2b2b2" stroke="#000000" stroke-width="8" d="m674.9184,412.71436c0,0 30,-27.14301 38.57202,-34.28598c8.57098,-7.14301 14.28595,-1.42801 27.14301,-30c12.85699,-28.57101 28.57092,-54.28601 28.57092,-60.00003c0,-5.71399 -7.14294,-37.14297 -7.14294,-47.14297c0,-10 -4.28503,-28.57101 -8.57098,-40c-4.28607,-11.42801 -48.57202,-62.85681 -48.57202,-62.85681l-75.71405,-144.28571l-57.14294,-27.14249l-45.71399,0l-41.42902,-10l-94.28302,17.142l-47.1499,31.42902l-48.57013,50c0,0 -31.42987,24.28574 -45.70996,31.42859c-14.28998,7.14288 -39.99994,28.5714 -39.99994,28.5714l-8.57007,44.2858l-42.85999,85.71419c0,0 -84.28992,44.28601 -84.28992,68.57101c0,24.28601 27.1499,80 31.42993,85.715c4.29004,5.71399 -7.14001,95.71399 -4.28003,104.28503c2.8501,8.57196 101.43005,41.42896 101.43005,41.42896l110,-7.14301c0,0 72.84991,-17.14301 82.84991,-20c10,-2.85699 34.289,-1.42798 34.289,-1.42798c0,0 50,-1.42902 60,-1.42902c10,0 122.85706,-35.71399 122.85706,-35.71399l68.57202,-62.85699l-2.85706,-18.57199l-2.85797,14.28598z" id="path4762"/>
    <path fill="#999999" d="m193.38538,188.91035c-23.09998,23.17601 -26.34998,64.56703 -61.12,77.27702c-19.31995,15.18597 -50.29993,26.42099 -56.43994,52.14899c2.04004,32.94299 27.67004,60.08899 31.15002,91.66101c-1.22009,31.78998 -4.19006,64.13403 -4.13,95.59601c44.08997,12.68494 85.87,44.51294 133.70996,33.30396c60.17004,0.27307 117.68005,-19.68701 177.16998,-24.086c35.18805,11.13007 27.79095,-18.67194 24.80804,-42.54095c0.32092,-20.81104 0.21301,-42.26703 -26.15808,-43.85403c-19.74988,-11.616 -49.94995,-16.655 -60.0199,-38.98999c-3.37006,-20.78101 9.87,-39.603 17.92993,-56.82098c-50.78998,-24.46603 -100.83997,-50.98203 -144.57996,-86.74701c-24.41003,-6.681 -27.19006,-34.56601 -29.04004,-55.685c-0.65002,-1.13701 -2.03003,-1.73801 -3.28003,-1.26302l0,0z" id="path4774"/>
    <path fill="#cacaca" d="m486.57861,-35.64276c-13.4762,2.88095 -35.58704,0.83081 -44.82544,10.35406c29.58954,4.44229 71.9292,5.06677 81.56982,40.27982c11.91406,39.14081 57.41986,51.62872 86.20789,75.5834c30.7774,17.259 58.38989,44.18954 91.7052,54.97882c6.07996,-9.29929 -10.93286,-23.024 -12.5,-33.21571c-19.6377,-38.39586 -39.42352,-76.90306 -59.85217,-114.77162c-32.88806,-17.27798 -67.9137,-30.80115 -105.66992,-28.53226c-12.42419,-0.26974 -24.1438,-5.75638 -36.63538,-4.67651z" id="path4778"/>
   </g>
   <g id="g4793">
    <path fill="#b2b2b2" stroke="#000000" stroke-width="8" d="m-132.71445,533.54382l-25.71399,-10l-42.85699,-34.28571l-5.71506,-52.8569l30.00003,-62.85699l4.28601,-27.14297l25.71399,-21.42902l18.57202,-55.71399l28.57098,-21.42902l5.71503,-27.14301l31.42798,-45.71399l30,-58.57098l15.71402,-15.71503l105.715,11.42902c0,0 28.57098,-2.85699 34.285,-2.85699c5.715,0 67.14297,21.42798 74.28598,25.71399c7.14301,4.28601 22.85703,5.71399 22.85703,5.71399l41.42899,14.28601l49.99997,12.85699l10,67.14301c0,0 14.28601,12.85699 15.71405,20c1.42896,7.14301 4.28595,55.71399 4.28595,55.71399l12.85706,38.57202l17.14276,41.42798l-15.71381,42.858l-17.14301,44.285l-47.14297,67.14319c0,0 -95.71399,7.14282 -101.42902,7.14282c-5.71399,0 -104.28497,-7.14282 -104.28497,-7.14282l-58.57202,-7.14288l-28.57098,-2.85712l-41.42902,18.57141l-37.14301,-11.42859l-52.85699,-8.57141z" id="path4758"/>
    <path fill="#cacaca" d="m203.57245,142.3476c-27.40225,10.46527 -39.70074,42.8811 -58.58887,63.89215c-12.8728,12.89679 -13.61136,36.29517 6.81854,42.04761c32.37958,21.34454 73.54108,25.34363 105.56094,45.45685c20.86551,18.04987 17.12589,54.37061 46.71957,64.5235c20.10425,9.40295 39.2298,27.46964 60.86169,30.68338c-3.44702,-22.47144 -17.99774,-45.58426 -21.72491,-69.31796c-9.02722,-27.37653 -3.05298,-59.79596 -22.34302,-82.83624c-7.31152,-21.4588 -7.29877,-44.89044 -12.50061,-66.54382c-35.59311,-6.33398 -69.06921,-24.15784 -104.80334,-27.90546z" id="path4787"/>
    <path fill="#999999" d="m-2.24612,105.87421c-32.6983,-0.73419 -36.67743,40.84283 -53.28558,60.86169c-16.45941,27.06219 -35.1507,53.08807 -43.94159,83.46387c-15.27124,14.03998 -33.13196,26.86414 -36.23926,49.62372c-2.99054,26.21643 -28.83264,39.05811 -36.99683,61.87189c-7.40875,39.12784 -40.84201,73.36584 -26.3902,115.53619c9.32397,26.28839 39.75104,39.01453 63.26074,50.50763c33.10883,5.61945 66.06555,20.27551 99.75259,18.18274c29.28406,-18.21613 63.14215,-12.31567 95.20688,-7.32361c-0.54077,-19.62506 2.6673,-45.19562 -4.85837,-63.61151c-31.41351,-33.38684 -64.47781,-69.89325 -112.18692,-77.63123c-17.53162,-2.47739 -10.93091,-29.58044 -9.35004,-42.98383c40.79468,15.15427 86.04807,25.43622 129.8046,21.46573c19.09741,-4.08627 21.53717,-27.94382 6.69226,-39.01712c-15.33224,-16.30194 -43.92108,-41.68488 -28.5368,-65.53363c9.69156,0.20959 23.84869,18.00476 29.67322,1.01013c2.98663,-15.64081 25.29593,-39.03821 7.57614,-52.14917c-25.6423,-12.35931 -56.00061,-14.3418 -78.41309,-33.71381c9.10251,-25.52087 22.30939,-50.77838 30.30457,-75.88776c-10.43579,-2.99365 -21.1199,-5.55212 -32.07233,-4.67194z" id="path4791"/>
   </g>
   <g id="g4840">
    <path fill="#b2b2b2" stroke="#000000" stroke-width="8" d="m430.92023,324.40115l-5.71429,-60l17.14282,-17.14285l57.14288,0l37.14288,0l14.28571,22.85715l45.71429,22.85712l34.28571,34.28571l42.85712,54.28577l51.42859,31.42853l-28.57141,40l-31.42859,22.85721l-37.14288,34.28571l-54.28571,-8.57141l-108.57141,-40.00003c0,0 -42.85718,-77.14288 -54.28571,-77.14288c-11.42859,0 -17.14288,8.57141 -17.14288,-2.85712c0,-11.42859 37.14288,-57.14288 37.14288,-57.14288z" id="path4834"/>
    <path fill="#cacaca" d="m512.67554,251.96536c-15.00818,-0.05841 -14.46484,21.2724 -14.55359,32.05356c7.13721,21.33176 36.14569,20.81137 51.16071,34.28574c29.91516,19.7738 54.22656,46.35358 80.17859,71.07141c-9.01691,28.91681 -3.07458,61.03943 13.03571,85.98209c9.47107,13.09119 19.3313,-4.44727 27.71106,-9.06335c18.45514,-13.58176 36.9668,-30.89328 46.12823,-51.82944c-24.1131,-16.72919 -51.30591,-30.41333 -67.17261,-56.65063c-25.3819,-34.33722 -56.63269,-64.70471 -95.7738,-82.18866c-13.42731,-5.53424 -13.91211,-27.8689 -32.05359,-23.75c-2.88641,0.04251 -5.77771,-0.09991 -8.66071,0.08929z" id="path4838"/>
   </g>
   <g id="g4802">
    <path fill="#cacaca" stroke="#000000" stroke-width="8" d="m646.68115,501.39014l-8.57202,-88.57104l-34.28503,-55.71497l-64.28601,-34.28503l-51.42896,-20l-68.57104,-7.14294c0,0 -52.85797,-1.42902 -64.28796,0c-11.42993,1.42798 -57.14001,21.42798 -57.14001,21.42798l-42.85999,48.57202c0,0 -8.57001,30 -14.27991,34.28497c-5.72009,4.28601 -17.15002,34.28601 -17.15002,34.28601c0,0 11.42993,50 11.42993,55.71399c0,5.71503 34.29004,52.85797 40,52.85797c5.72009,0 107.14001,-2.85797 114.29004,-5.71497c7.13995,-2.85699 41.42603,-14.28503 41.42603,-14.28503l52.85791,7.14203c0,0 31.42798,-2.85699 37.14209,-2.85699c5.71497,0 48.5719,5.71497 48.5719,5.71497l40,-14.28595l37.14307,-17.14301z" id="path4764"/>
    <path fill="#b2b2b2" d="m289.9566,352.33459c-28.61914,-2.08868 -36.37231,29.16614 -45.70947,49.37122c-11.3056,19.10529 -23.47101,38.00342 -13.00568,60.48285c6.42114,28.56146 19.65552,61.08081 45.58325,76.39282c51.3739,2.58527 103.55933,-2.69623 152.91168,-16.92004c29.81219,-0.40485 64.25616,11.87103 90.91376,-1.89404c-29.33185,-21.76624 -63.59387,-39.48309 -89.97375,-63.6944c-14.97168,-30.45813 -24.11078,-65.99609 -44.1239,-93.00549c-31.02905,-8.98584 -64.37592,-10.56451 -96.59589,-10.73291z" id="path4800"/>
   </g>
   <g id="g4816">
    <path fill="#b2b2b2" stroke="#000000" stroke-width="8" d="m-36.22263,581.54407l4.28571,-27.14282l12.85718,-21.42859l-17.14288,-21.42859l-10,-8.57141c0,0 -25.71429,-22.85712 -32.85712,-22.85712c-7.14288,0 -20,8.57141 -25.71429,11.42853c-5.71426,2.85718 -18.5715,2.85718 -18.5715,10c0,7.14288 -15.71423,28.57147 -15.71423,28.57147c0,0 -21.42853,20 -21.42853,30c0,10 2.85706,27.14288 11.42853,27.14288c8.57147,0 44.28574,-1.42871 44.28574,-1.42871l11.42853,14.28589c0,0 21.42859,8.57141 28.57147,1.42847c7.14282,-7.14282 28.57141,-20 28.57141,-20z" id="path4766"/>
    <path fill="#999999" d="m-131.93719,535.82971l-17.14307,20.005l11.42902,22.84998l25.71405,0l25.715,0l-45.715,-42.85498z" id="path4814"/>
   </g>
   <g id="g4822">
    <path fill="#cacaca" stroke="#000000" stroke-width="8" d="m148.06311,575.82971c0,0 -14.28571,-18.57141 -14.28571,-28.57141c0,-10 2.85706,-21.42859 -4.28577,-24.28571c-7.14288,-2.85718 -75.71423,-20 -81.42853,-20c-5.71436,0 -62.85718,20 -62.85718,20c0,0 -27.14282,17.14282 -32.85718,21.42853c-5.71429,4.28577 -17.14282,8.57147 -21.42859,22.85718c-4.28571,14.28571 -11.42853,30 -11.42853,30c0,0 10,30 15.71429,30c5.71423,0 80,14.28571 88.57147,11.42859c8.57135,-2.85718 20,-11.42859 31.42853,-11.42859c11.42853,0 57.14282,5.71429 64.28571,5.71429c7.14282,0 27.14282,-11.42859 27.14282,-20c0,-8.57147 1.42865,-37.14288 1.42865,-37.14288z" id="path4768"/>
    <path fill="#e4e4e4" d="m8.06348,541.54382c0,0 20,0 34.28503,0c14.28595,0 42.85693,20 42.85693,20l20,34.28601l22.85803,5.71399l11.42798,-8.57098l-28.57092,-60l-60,-20l-54.28607,34.28497l11.42902,-5.71399z" id="path4820"/>
   </g>
   <g id="g4828">
    <path fill="#e4e4e4" stroke="#000000" stroke-width="8" d="m312.35162,565.82922c0,0 10,-25.71399 10,-35.71399c0,-10 -1.42993,-44.28601 -1.42993,-44.28601c0,0 -22.86011,-10 -25.72003,-15.71399c-2.85004,-5.71399 -10,-21.42798 -15.71002,-27.14301c-5.70996,-5.71399 -30,-31.42795 -30,-31.42795l-77.13995,10l-41.42993,32.85696c0,0 -25.72009,20 -25.72009,28.57098c0,8.57202 0,40 0,40c0,0 17.15002,18.57202 18.58008,25.71503c1.41992,7.14197 14.27991,30 20,30c5.70996,0 60,-14.28601 67.14001,-12.85803c7.13983,1.42902 38.56989,2.85803 38.56989,2.85803l62.85999,-2.85803z" id="path4770"/>
    <path fill="#f2f2f2" d="m176.63171,444.40125c0,11.42798 42.85992,31.42798 42.85992,48.57098c0,17.14301 51.43005,48.57202 51.43005,48.57202l22.85999,5.71399l-25.72009,-60l22.86011,-17.14301l-37.14001,-48.57095l-20,57.14297l-19.99994,-45.71503l-37.15002,11.42902z" id="path4826"/>
   </g>
   <g id="g4808">
    <path fill="#e4e4e4" stroke="#000000" stroke-width="8" d="m511.42877,597.77539l-8.38934,-28.23016l0.612,-18.61578l-10.00403,-32.45044l-11.24359,-28.10486l-35.4436,-25.61292l-7.70013,-12.53131l-45.30762,-22.3201l-55.59875,3.87152l-21.89502,22.40994l-32.38672,11.43164l-19.16611,19.4314c0,0 -18.11453,10.80499 -23.51074,18.19177c-5.39511,7.38678 -17.67581,20.79541 -18.79013,27.9942c-1.11328,7.19775 -6.00717,26.0025 -6.00717,26.0025l-4.83218,20.23145l9.56631,22.45898l44.49298,3.76599l30.2218,4.39362l123.11575,3.17365l81.41229,-2.1441l10.854,-13.34698z" id="path4760"/>
    <path fill="#f2f2f2" d="m414.07214,464.77582c0,0 -25.81458,-1.72733 -37.2326,-1.22598c-11.41699,0.50125 -39.83612,4.60977 -22.33362,12.42062c17.50244,7.81073 37.60852,9.7887 55.11102,17.59955c17.50244,7.81073 38.61115,32.62372 38.61115,32.62372l14.52185,5.08191l-10.56793,-45.29407l-38.10986,-21.20575z" id="path4806"/>
   </g>
   <g id="g4848">
    <path fill="#e6e6e6" stroke="#000000" stroke-width="8" d="m572.99487,553.85883c0,-4.04102 -3.03046,-32.32501 -3.03046,-32.32501l-30.3045,-23.23401c0,0 -20.20343,-4.03998 -26.2644,-5.04999c-6.06104,-1.01001 -18.18201,-9.09198 -22.22302,4.03998c-4.04102,13.13202 -7.07098,21.21405 -7.07098,21.21405l-21.21301,26.26398c0,0 12.12201,25.25299 16.16199,26.263c4.04102,1.01099 43.43701,2.021 43.43701,2.021l39.39569,0l11.11169,-19.19299z" id="path4844"/>
    <path fill="#f2f2f2" d="m521.47748,501.33081c-2.021,4.04102 -1.01099,10.10101 0,15.15204c1.01001,5.05096 1.01001,4.04095 6.06104,9.09198c5.04999,5.04999 28.28375,13.13202 28.28375,13.13202l4.04065,-19.19305l-21.21326,-12.12195l-17.17218,-6.06104z" id="path4846"/>
   </g>
  </g>
 </g>
</svg>